<svg xmlns="http://www.w3.org/2000/svg" width="19.78" height="17.082" viewBox="0 0 19.78 17.082"><defs><style>.a{fill:#3e5351;}</style></defs><g transform="translate(-10 -76.8)"><path class="a" d="M23.487,79.5V76.8H16.293v2.7H10V93.882H29.78V79.5Zm-6.293-1.8h5.4v1.8h-5.4Zm-6.3,2.7H28.88v3.631a43.726,43.726,0,0,1-8.992.866,43.741,43.741,0,0,1-8.992-.866l0-3.631Zm8.094,5.383c.3.006.6.012.9.012s.6-.006.9-.012V87.59h-1.8l0-1.811Zm9.89,7.2H10.9V84.95a43.674,43.674,0,0,0,7.194.807v2.733h3.6V85.758a43.725,43.725,0,0,0,7.194-.807v8.033Z" transform="translate(0 0)"/></g></svg>