<svg xmlns="http://www.w3.org/2000/svg" width="50.297" height="44.33" viewBox="0 0 50.297 44.33"><defs><style>.a{fill:#067e72;}.b,.c{stroke:none;}.c{fill:#707070;}</style></defs><g class="a" transform="translate(1 31.141)"><path class="b" d="M 3.51900053024292 12.68900012969971 C 2.463030338287354 12.68900012969971 1.531490445137024 12.39914989471436 0.7502504587173462 11.8275203704834 C -0.07935956120491028 11.22049045562744 -0.4999995529651642 10.34689998626709 -0.4999995529651642 9.230999946594238 C -0.4999995529651642 8.305580139160156 -0.1986495554447174 7.242790222167969 0.3956704437732697 6.072150230407715 C 0.9685304164886475 4.943789958953857 1.72368049621582 3.775460243225098 2.640140533447266 2.599630117416382 C 3.55107045173645 1.430880188941956 4.596150398254395 0.2724901735782623 5.746340274810791 -0.8433698415756226 C 6.895420551300049 -1.958139777183533 8.061590194702148 -2.958859920501709 9.212460517883301 -3.81771993637085 C 10.36892032623291 -4.680739879608154 11.49148082733154 -5.390830039978027 12.54898071289063 -5.928239822387695 C 13.66751003265381 -6.496679782867432 14.60074043273926 -6.77299976348877 15.40200042724609 -6.77299976348877 C 15.73836040496826 -6.77299976348877 16.08554077148438 -6.70026969909668 16.43387031555176 -6.556839942932129 C 16.91308975219727 -6.359519958496094 17.17700004577637 -5.987030029296875 17.17700004577637 -5.507999897003174 C 17.17700004577637 -5.398959636688232 17.13568115234375 -4.855000019073486 16.31999969482422 -4.855000019073486 L 15.8100004196167 -4.855000019073486 C 15.28791999816895 -4.855000019073486 14.58979034423828 -4.610709667205811 13.73501014709473 -4.12891960144043 C 12.82690048217773 -3.617079734802246 11.84482002258301 -2.945289850234985 10.81603050231934 -2.132219791412354 C 9.781100273132324 -1.314289808273315 8.722360610961914 -0.3740598261356354 7.669210433959961 0.6623701453208923 C 6.617730617523193 1.69717013835907 5.662020206451416 2.754280090332031 4.828640460968018 3.804330110549927 C 3.999850511550903 4.848610401153564 3.31186056137085 5.863409996032715 2.783790349960327 6.820539951324463 C 2.283610343933105 7.727110385894775 2.030000448226929 8.503789901733398 2.030000448226929 9.128999710083008 C 2.030000448226929 9.516380310058594 2.135440349578857 9.789040565490723 2.352350473403931 9.962570190429688 C 2.603370428085327 10.16338062286377 2.934940338134766 10.26100063323975 3.366000413894653 10.26100063323975 C 4.039140224456787 10.26100063323975 4.879390239715576 10.03593063354492 5.863400459289551 9.59203052520752 C 6.885140419006348 9.131110191345215 7.97407054901123 8.503359794616699 9.099970817565918 7.726200103759766 C 10.22906017303467 6.946830272674561 11.35819053649902 6.020990371704102 12.45598030090332 4.974380016326904 C 13.55425071716309 3.927330255508423 14.55794048309326 2.815520286560059 15.43918037414551 1.669820189476013 C 16.31307029724121 0.5336501598358154 17.03135108947754 -0.6420398354530334 17.57406997680664 -1.824609875679016 C 18.10221099853516 -2.975419759750366 18.3700008392334 -4.070449829101563 18.3700008392334 -5.079279899597168 C 18.3700008392334 -5.910219669342041 18.20049095153809 -6.65477991104126 17.86618995666504 -7.292279720306396 C 17.53604125976563 -7.92186975479126 16.97875022888184 -8.482449531555176 16.20981979370117 -8.958469390869141 C 15.40447044372559 -9.457039833068848 14.33314037322998 -9.891889572143555 13.02560043334961 -10.2509593963623 C 11.69841003417969 -10.61541938781738 10.04408073425293 -10.90174007415771 8.108550071716309 -11.10196018218994 C 7.6638503074646 -11.14643001556396 7.224980354309082 -11.36001014709473 6.805840492248535 -11.73657989501953 C 6.357390403747559 -12.139479637146 6.130000591278076 -12.5729398727417 6.130000591278076 -13.0249195098877 C 6.130000591278076 -13.35260009765625 6.241970539093018 -13.82213973999023 6.775410652160645 -14.19818019866943 C 7.075344562530518 -14.40962791442871 7.524758338928223 -14.69772815704346 8.149320602416992 -15.07895374298096 C 8.721916198730469 -15.44901371002197 9.506766319274902 -15.96878623962402 10.4822301864624 -16.62392044067383 C 11.46091079711914 -17.28120040893555 12.53061008453369 -18.01622009277344 13.66161060333252 -18.80855941772461 C 14.79055023193359 -19.59943962097168 15.95272064208984 -20.44422912597656 17.11585998535156 -21.31947898864746 C 18.27248001098633 -22.1898193359375 19.32565116882324 -23.04640007019043 20.24612998962402 -23.86541938781738 C 21.15690040588379 -24.67578887939453 21.91045951843262 -25.44474983215332 22.48589134216309 -26.15093040466309 C 23.13066101074219 -26.94220924377441 23.26600074768066 -27.39940071105957 23.26600074768066 -27.64360046386719 C 23.26600074768066 -27.71611976623535 23.26600074768066 -27.85108947753906 22.9538402557373 -27.98745918273926 C 22.71831130981445 -28.0903491973877 22.24332046508789 -28.21299934387207 21.31800079345703 -28.21299934387207 C 20.1401195526123 -28.21299934387207 18.7992000579834 -28.0291690826416 17.33248138427734 -27.66661071777344 C 15.85379028320313 -27.30109024047852 14.44788074493408 -26.82974052429199 13.15379047393799 -26.26564979553223 C 11.87220001220703 -25.70701026916504 10.77578067779541 -25.07638931274414 9.894970893859863 -24.39131927490234 C 9.109350204467773 -23.7802791595459 8.711000442504883 -23.1923999786377 8.711000442504883 -22.64399909973145 C 8.711000442504883 -22.1609001159668 8.49474048614502 -21.77125930786133 8.102070808410645 -21.5468807220459 C 7.788680553436279 -21.36779975891113 7.447840213775635 -21.27700042724609 7.089000225067139 -21.27700042724609 C 6.80763053894043 -21.27700042724609 6.54365062713623 -21.33765983581543 6.304390430450439 -21.45729064941406 C 5.966690540313721 -21.62614059448242 5.773000240325928 -21.92856025695801 5.773000240325928 -22.28700065612793 C 5.773000240325928 -23.34853935241699 6.353420257568359 -24.40877914428711 7.498140335083008 -25.43827056884766 C 8.568680763244629 -26.40105056762695 9.907790184020996 -27.26861953735352 11.47828006744385 -28.01688003540039 C 13.03062057495117 -28.75650978088379 14.70890045166016 -29.38419914245605 16.46650123596191 -29.88253974914551 C 18.24153137207031 -30.38582038879395 19.87033081054688 -30.64100074768066 21.30764007568359 -30.64100074768066 C 22.54537010192871 -30.64100074768066 23.58913993835449 -30.41433906555176 24.40995025634766 -29.96730041503906 C 25.31670951843262 -29.47347068786621 25.79599952697754 -28.65065002441406 25.79599952697754 -27.58781051635742 C 25.79599952697754 -26.84560966491699 25.5107307434082 -26.03219032287598 24.94812965393066 -25.17015075683594 C 24.42328071594238 -24.36598968505859 23.72568130493164 -23.50065994262695 22.87470054626465 -22.59819984436035 C 22.03079986572266 -21.70327949523926 21.05373954772949 -20.78799057006836 19.97063064575195 -19.87776947021484 C 18.89553070068359 -18.9742603302002 17.7880802154541 -18.09251022338867 16.67903137207031 -17.25699996948242 C 15.57293033599854 -16.42370986938477 14.48541069030762 -15.63029003143311 13.44670009613037 -14.89876937866211 C 12.83129501342773 -14.46537494659424 12.25625896453857 -14.06171607971191 11.72689723968506 -13.69151020050049 C 13.17379856109619 -13.4318904876709 14.45189762115479 -13.09505844116211 15.5381908416748 -12.68647003173828 C 16.94066047668457 -12.15895938873291 18.10148048400879 -11.52161979675293 18.98838996887207 -10.79214954376221 C 19.89282989501953 -10.04827976226807 20.56450080871582 -9.197079658508301 20.9847412109375 -8.262199401855469 C 21.40229034423828 -7.333309650421143 21.61400032043457 -6.34499979019165 21.61400032043457 -5.324719905853271 C 21.61400032043457 -4.004049777984619 21.30893135070801 -2.615619897842407 20.70726013183594 -1.197999835014343 C 20.11622047424316 0.1945901662111282 19.31527137756348 1.569730162620544 18.32665061950684 2.8892502784729 C 17.34519958496094 4.199190139770508 16.21940994262695 5.457450389862061 14.98056030273438 6.629100322723389 C 13.74258041381836 7.799910068511963 12.44288063049316 8.847920417785645 11.11756038665771 9.744020462036133 C 9.785870552062988 10.6444206237793 8.459410667419434 11.36526012420654 7.175020217895508 11.88650035858154 C 5.862890243530273 12.41900062561035 4.632820606231689 12.68900012969971 3.51900053024292 12.68900012969971 Z M 38.91300201416016 0.7040001749992371 L 38.42850112915039 0.7040001749992371 C 38.21937942504883 0.7040001749992371 38.00154495239258 0.6606261134147644 37.78067398071289 0.5750490427017212 C 36.75345230102539 0.2665027976036072 36.01187133789063 -0.2613027095794678 35.57622909545898 -0.9939598441123962 C 35.15737915039063 -1.698399782180786 34.94499969482422 -2.513629913330078 34.94499969482422 -3.416999816894531 C 34.94499969482422 -3.619263887405396 34.9536247253418 -3.82359504699707 34.97077560424805 -4.029116153717041 C 34.88526916503906 -3.997126817703247 34.79851913452148 -3.966461420059204 34.71060943603516 -3.937159776687622 C 33.71122360229492 -3.604027986526489 32.66322708129883 -3.390059471130371 31.59061050415039 -3.299814701080322 C 31.28568840026855 -2.377685546875 30.79594421386719 -1.53450083732605 30.13175964355469 -0.7893098592758179 C 29.33905982971191 0.1000501662492752 28.46706962585449 0.55100017786026 27.54000091552734 0.55100017786026 C 26.51272010803223 0.55100017786026 25.70153045654297 0.2295701652765274 25.12895011901855 -0.4043598175048828 C 24.56961059570313 -1.023629784584045 24.28600120544434 -1.814159870147705 24.28600120544434 -2.753999948501587 C 24.28600120544434 -3.808192014694214 24.55595207214355 -4.871586799621582 25.08890724182129 -5.918675899505615 C 24.9282283782959 -6.277987480163574 24.84700012207031 -6.687436103820801 24.84700012207031 -7.139999866485596 C 24.84700012207031 -7.92963981628418 25.16024971008301 -8.561650276184082 25.75288009643555 -8.967720031738281 C 26.3021411895752 -9.344059944152832 27.07020950317383 -9.526999473571777 28.10099983215332 -9.526999473571777 L 28.12020111083984 -9.526999473571777 L 28.13935089111328 -9.525529861450195 C 29.13432121276855 -9.448989868164063 30.02495002746582 -9.052999496459961 30.78652000427246 -8.348549842834473 C 31.5698299407959 -7.623990058898926 31.96700096130371 -6.616809844970703 31.96700096130371 -5.355000019073486 C 31.96700096130371 -5.285732746124268 31.96513938903809 -5.220246315002441 31.96137619018555 -5.157925605773926 C 32.6992301940918 -5.203909873962402 33.42110443115234 -5.343416213989258 34.1138916015625 -5.574339866638184 C 34.63190460205078 -5.747011661529541 35.0941276550293 -5.98742151260376 35.48987197875977 -6.289783000946045 C 35.75859069824219 -7.02134895324707 36.09964370727539 -7.70720911026001 36.50477981567383 -8.330490112304688 C 36.9734992980957 -9.051599502563477 37.49797058105469 -9.648530006408691 38.06362152099609 -10.10470962524414 C 38.6793212890625 -10.60124015808105 39.29111099243164 -10.85299968719482 39.88199996948242 -10.85299968719482 C 40.21403884887695 -10.85299968719482 40.56058120727539 -10.74164009094238 40.9119987487793 -10.52199935913086 C 41.70035171508789 -10.0241003036499 42.11600112915039 -9.27830982208252 42.11600112915039 -8.363999366760254 C 42.11600112915039 -7.637069702148438 41.85527038574219 -6.947579860687256 41.34106063842773 -6.314699649810791 C 40.83203887939453 -5.696589946746826 40.2181396484375 -5.155719757080078 39.51433181762695 -4.704559803009033 C 38.91504287719727 -4.320398330688477 38.31172943115234 -4.042576789855957 37.71633148193359 -3.876185655593872 C 37.71039199829102 -3.836886405944824 37.70515823364258 -3.799122095108032 37.70064163208008 -3.762979745864868 C 37.686279296875 -3.648109912872314 37.67900085449219 -3.514549732208252 37.67900085449219 -3.365999937057495 C 37.67900085449219 -2.930659770965576 37.77017211914063 -2.536699771881104 37.95771026611328 -2.161609888076782 C 38.11030960083008 -1.856419801712036 38.39350891113281 -1.658889889717102 38.82352066040039 -1.557709813117981 L 38.82690048217773 -1.556909799575806 L 38.83026885986328 -1.556069850921631 C 38.89609146118164 -1.53961980342865 39.02581024169922 -1.519999861717224 39.27000045776367 -1.519999861717224 C 39.87871932983398 -1.519999861717224 40.57603073120117 -1.686569809913635 41.3425407409668 -2.015069723129272 C 42.14670944213867 -2.359719753265381 42.94609069824219 -2.7844398021698 43.71847915649414 -3.277459859848022 C 44.49288940429688 -3.771759748458862 45.2106819152832 -4.305850028991699 45.8519287109375 -4.864889621734619 C 46.47987365722656 -5.412325859069824 46.94223785400391 -5.880602359771729 47.22646713256836 -6.256990432739258 C 47.45853424072266 -6.599411487579346 47.73285293579102 -6.77299976348877 48.04199981689453 -6.77299976348877 C 48.39028930664063 -6.77299976348877 48.79700088500977 -6.535199642181396 48.79700088500977 -5.864999771118164 C 48.79700088500977 -5.403859615325928 48.65354919433594 -5.002679824829102 48.37063217163086 -4.672599792480469 C 47.39396667480469 -3.521525382995605 46.05450820922852 -2.391932249069214 44.39129638671875 -1.317234396934509 C 43.51643753051758 -0.7228157520294189 42.60182571411133 -0.2348044961690903 41.67267990112305 0.1333401650190353 C 40.71701049804688 0.5120001435279846 39.78852081298828 0.7040001749992371 38.91300201416016 0.7040001749992371 Z M 27.02995491027832 -4.056808471679688 C 27.00056457519531 -3.919138431549072 26.97944068908691 -3.783331394195557 26.96675109863281 -3.650099754333496 C 26.93440055847168 -3.310459852218628 26.91800117492676 -2.974649906158447 26.91800117492676 -2.651999950408936 C 26.91800117492676 -2.190849781036377 26.9630012512207 -1.799509882926941 27.05175971984863 -1.48885977268219 C 27.09019660949707 -1.354341864585876 27.12957382202148 -1.293248772621155 27.1491756439209 -1.269147753715515 C 27.51093673706055 -1.31265914440155 27.86822128295898 -1.690335988998413 28.11030006408691 -2.010219812393188 C 28.43953132629395 -2.445276021957397 28.7192268371582 -2.935184955596924 28.94533348083496 -3.472121000289917 C 28.57057571411133 -3.539294958114624 28.21278762817383 -3.62554144859314 27.87630081176758 -3.72996973991394 C 27.57590103149414 -3.823195934295654 27.29301071166992 -3.932493925094604 27.02995491027832 -4.056808471679688 Z M 27.8235034942627 -7.761901378631592 C 27.12898254394531 -7.755782127380371 27.07100105285645 -7.464318752288818 27.07100105285645 -7.139999866485596 C 27.07100105285645 -6.736660003662109 27.2984504699707 -6.388959884643555 27.76634979248047 -6.077029705047607 C 28.20977973937988 -5.781407356262207 28.76568794250488 -5.55147647857666 29.423583984375 -5.391083240509033 C 29.4324951171875 -5.48757791519165 29.4370002746582 -5.595156192779541 29.4370002746582 -5.711999893188477 C 29.4370002746582 -6.294980049133301 29.30673980712891 -6.770339965820313 29.03876113891602 -7.165249824523926 C 28.8051586151123 -7.509511470794678 28.40751647949219 -7.704803466796875 27.8235034942627 -7.761901378631592 Z M 39.97320175170898 -7.964853763580322 C 39.90021514892578 -7.922761917114258 39.82312393188477 -7.868085384368896 39.74309158325195 -7.801389694213867 C 39.46731185913086 -7.571569919586182 39.20172882080078 -7.289999961853027 38.95372009277344 -6.964479923248291 C 38.90727233886719 -6.903515815734863 38.8618049621582 -6.842453479766846 38.81731033325195 -6.781288146972656 C 38.8586311340332 -6.811987400054932 38.9000129699707 -6.843125343322754 38.94147872924805 -6.874719619750977 C 39.26432037353516 -7.120689868927002 39.55234909057617 -7.400829792022705 39.79756927490234 -7.70734977722168 C 39.86619567871094 -7.793134212493896 39.92467498779297 -7.878812789916992 39.97320175170898 -7.964853763580322 Z"/><path class="c" d="M 21.30764007568359 -30.1410026550293 C 19.90991973876953 -30.1410026550293 18.34167098999023 -29.89450073242188 16.60289001464844 -29.4015007019043 C 14.86410903930664 -28.90850067138672 13.22758865356445 -28.29650115966797 11.69334030151367 -27.56550216674805 C 10.15909194946289 -26.83450126647949 8.872138977050781 -26.00150299072266 7.832481384277344 -25.06650161743164 C 6.792831420898438 -24.13150215148926 6.272998809814453 -23.20500183105469 6.272998809814453 -22.28700256347656 C 6.272998809814453 -22.11700057983398 6.358001708984375 -21.989501953125 6.527999877929688 -21.90450096130371 C 6.698001861572266 -21.81950187683105 6.885002136230469 -21.77700233459473 7.089000701904297 -21.77700233459473 C 7.361000061035156 -21.77700233459473 7.616001129150391 -21.84500122070313 7.854000091552734 -21.98100280761719 C 8.091999053955078 -22.11700057983398 8.211002349853516 -22.3380012512207 8.211002349853516 -22.64400100708008 C 8.211002349853516 -23.35800170898438 8.670001983642578 -24.07200241088867 9.588001251220703 -24.78600120544434 C 10.50600051879883 -25.50000190734863 11.62800216674805 -26.1460018157959 12.95399856567383 -26.72400283813477 C 14.27999877929688 -27.302001953125 15.69950103759766 -27.77800178527832 17.21249961853027 -28.15200042724609 C 18.72550010681152 -28.5260009765625 20.0939998626709 -28.7130012512207 21.31800079345703 -28.7130012512207 C 22.95000076293945 -28.7130012512207 23.76600074768066 -28.35653305053711 23.76600074768066 -27.64360046386719 C 23.76600074768066 -27.16812133789063 23.4685001373291 -26.56529235839844 22.87350082397461 -25.83509063720703 C 22.27849960327148 -25.10488128662109 21.51350021362305 -24.32381057739258 20.57850074768066 -23.49188232421875 C 19.64350128173828 -22.65994262695313 18.58950042724609 -21.80263137817383 17.41650009155273 -20.91996192932129 C 16.24349975585938 -20.03729248046875 15.08750152587891 -19.19698143005371 13.94850158691406 -18.39905166625977 C 12.80950164794922 -17.60111236572266 11.74700164794922 -16.87104225158691 10.76100158691406 -16.20884132385254 C 9.775001525878906 -15.54663181304932 8.993000030517578 -15.02880191802979 8.415000915527344 -14.6553316116333 C 7.803001403808594 -14.28186225891113 7.352500915527344 -13.99326133728027 7.063499450683594 -13.78952217102051 C 6.774501800537109 -13.58579158782959 6.630001068115234 -13.3309211730957 6.630001068115234 -13.02492141723633 C 6.630001068115234 -12.71945190429688 6.799999237060547 -12.41398239135742 7.139999389648438 -12.10851192474365 C 7.479999542236328 -11.80305194854736 7.819999694824219 -11.6333122253418 8.159999847412109 -11.59931182861328 C 10.13199996948242 -11.39531135559082 11.79800033569336 -11.10658168792725 13.15800094604492 -10.73311233520508 C 14.51800155639648 -10.35964202880859 15.62300109863281 -9.909801483154297 16.47299957275391 -9.383602142333984 C 17.32299995422363 -8.857401847839355 17.93500137329102 -8.237691879272461 18.30900001525879 -7.524491310119629 C 18.6830005645752 -6.811291694641113 18.8700008392334 -5.996221542358398 18.8700008392334 -5.079281806945801 C 18.8700008392334 -3.992871284484863 18.58950042724609 -2.838471412658691 18.02849960327148 -1.616062164306641 C 17.46750068664551 -0.3936519622802734 16.73649978637695 0.8032474517822266 15.83549880981445 1.974658966064453 C 14.93450164794922 3.146059036254883 13.92300033569336 4.266597747802734 12.80099868774414 5.336267471313477 C 11.67900085449219 6.405948638916016 10.54000091552734 7.339748382568359 9.383998870849609 8.137687683105469 C 8.228000640869141 8.935628890991211 7.123001098632813 9.572328567504883 6.069000244140625 10.04779815673828 C 5.014999389648438 10.52326774597168 4.114002227783203 10.7609977722168 3.366001129150391 10.7609977722168 C 2.821998596191406 10.7609977722168 2.380001068115234 10.62499809265137 2.040000915527344 10.35299873352051 C 1.700000762939453 10.08099746704102 1.529998779296875 9.672998428344727 1.529998779296875 9.128997802734375 C 1.529998779296875 8.414999008178711 1.802001953125 7.564998626708984 2.346000671386719 6.578998565673828 C 2.889999389648438 5.592998504638672 3.587001800537109 4.564498901367188 4.437000274658203 3.493497848510742 C 5.286998748779297 2.42249870300293 6.247501373291016 1.35999870300293 7.318500518798828 0.3059978485107422 C 8.389499664306641 -0.7480010986328125 9.451999664306641 -1.691501617431641 10.50600051879883 -2.524501800537109 C 11.56000137329102 -3.357501983642578 12.55450057983398 -4.037501335144043 13.489501953125 -4.564501762390137 C 14.42449951171875 -5.09150218963623 15.19800186157227 -5.355001449584961 15.81000137329102 -5.355001449584961 L 16.31999969482422 -5.355001449584961 C 16.5580005645752 -5.355001449584961 16.67700004577637 -5.406002044677734 16.67700004577637 -5.508001327514648 C 16.67700004577637 -5.780001640319824 16.53250122070313 -5.975502014160156 16.24349975585938 -6.094501495361328 C 15.95450210571289 -6.213501930236816 15.67399978637695 -6.273001670837402 15.40200042724609 -6.273001670837402 C 14.6879997253418 -6.273001670837402 13.8125 -6.009501457214355 12.7755012512207 -5.482501983642578 C 11.73849868774414 -4.955501556396484 10.6505012512207 -4.267002105712891 9.511501312255859 -3.417001724243164 C 8.372501373291016 -2.567001342773438 7.233501434326172 -1.589502334594727 6.094501495361328 -0.4845008850097656 C 4.955501556396484 0.6204986572265625 3.935501098632813 1.750997543334961 3.034500122070313 2.906997680664063 C 2.133499145507813 4.062997817993164 1.402500152587891 5.193498611450195 0.8414993286132813 6.298498153686523 C 0.2805023193359375 7.403497695922852 0 8.380998611450195 0 9.230998992919922 C 0 10.18299865722656 0.3484992980957031 10.91399765014648 1.045501708984375 11.42399787902832 C 1.742500305175781 11.93399810791016 2.567001342773438 12.18899917602539 3.519001007080078 12.18899917602539 C 4.573001861572266 12.18899917602539 5.729000091552734 11.93373870849609 6.98699951171875 11.42319869995117 C 8.244998931884766 10.91266822814941 9.528499603271484 10.21487808227539 10.83750152587891 9.329809188842773 C 12.14649963378906 8.444747924804688 13.41300201416016 7.423418045043945 14.63700103759766 6.265829086303711 C 15.86100006103516 5.108238220214844 16.95750045776367 3.882778167724609 17.92650032043457 2.589448928833008 C 18.89550018310547 1.296117782592773 19.66900062561035 -0.03148078918457031 20.24699974060059 -1.393331527709961 C 20.82500076293945 -2.755191802978516 21.11400032043457 -4.065661430358887 21.11400032043457 -5.324721336364746 C 21.11400032043457 -6.278311729431152 20.91889953613281 -7.189141273498535 20.52869987487793 -8.057201385498047 C 20.13849067687988 -8.925261497497559 19.51918983459473 -9.708191871643066 18.67078018188477 -10.40599155426025 C 17.8223705291748 -11.10379219055176 16.7194995880127 -11.70795154571533 15.36215972900391 -12.21848106384277 C 14.00481033325195 -12.72901153564453 12.35900115966797 -13.1205415725708 10.42472076416016 -13.39308166503906 C 11.20830917358398 -13.93761157989502 12.11967086791992 -14.57577133178711 13.1588020324707 -15.30757141113281 C 14.19792175292969 -16.03937149047852 15.27104949951172 -16.82230186462402 16.37817001342773 -17.65636253356934 C 17.48530006408691 -18.49042129516602 18.57555961608887 -19.35848236083984 19.64895057678223 -20.26055145263672 C 20.72233963012695 -21.16261100769043 21.67633056640625 -22.05617141723633 22.51091957092285 -22.94123077392578 C 23.34551048278809 -23.82630157470703 24.01834106445313 -24.66036224365234 24.52941131591797 -25.44342231750488 C 25.04047012329102 -26.22648239135742 25.29599952697754 -26.94128036499023 25.29599952697754 -27.58781051635742 C 25.29599952697754 -28.47288131713867 24.92094039916992 -29.11967086791992 24.17081069946289 -29.52820205688477 C 23.42069053649902 -29.93673133850098 22.46630096435547 -30.1410026550293 21.30764007568359 -30.1410026550293 M 39.88199996948242 -10.35300159454346 C 39.40599822998047 -10.35300159454346 38.90449905395508 -10.14050197601318 38.37750244140625 -9.71550178527832 C 37.85050201416016 -9.290501594543457 37.36600112915039 -8.738001823425293 36.92399978637695 -8.058001518249512 C 36.51326751708984 -7.426104545593262 36.17594909667969 -6.735531806945801 35.91201782226563 -5.98619556427002 C 36.13058471679688 -6.164828300476074 36.33191680908203 -6.362434387207031 36.51599884033203 -6.579001426696777 C 36.54999923706055 -6.681001663208008 36.63500213623047 -6.732001304626465 36.77099990844727 -6.732001304626465 C 37.04299926757813 -6.732001304626465 37.17900085449219 -6.596001625061035 37.17900085449219 -6.324001312255859 C 37.17900085449219 -6.29000186920166 37.14500045776367 -6.205001831054688 37.07699966430664 -6.069002151489258 C 36.67978286743164 -5.583514213562012 36.18585968017578 -5.180370330810547 35.59528350830078 -4.859596252441406 C 35.49508666992188 -4.372448921203613 35.44499969482422 -3.891623497009277 35.44499969482422 -3.417001724243164 C 35.44499969482422 -2.601001739501953 35.63199996948242 -1.878501892089844 36.00600051879883 -1.249502182006836 C 36.38000106811523 -0.6205024719238281 37.0260009765625 -0.1700019836425781 37.94400024414063 0.1019973754882813 C 38.11399841308594 0.1699981689453125 38.2755012512207 0.2039985656738281 38.42850112915039 0.2039985656738281 C 38.58150100708008 0.2039985656738281 38.74300003051758 0.2039985656738281 38.91300201416016 0.2039985656738281 C 39.72900009155273 0.2039985656738281 40.58750152587891 0.0254974365234375 41.48850250244141 -0.3315010070800781 C 42.38949966430664 -0.6885013580322266 43.26499938964844 -1.156002044677734 44.1150016784668 -1.734001159667969 C 45.74700164794922 -2.788002014160156 47.03900146484375 -3.876001358032227 47.99100112915039 -4.998002052307129 C 48.19499969482422 -5.236001968383789 48.29700088500977 -5.525001525878906 48.29700088500977 -5.865001678466797 C 48.29700088500977 -6.137001991271973 48.21200180053711 -6.273001670837402 48.04199981689453 -6.273001670837402 C 47.90600204467773 -6.273001670837402 47.76998901367188 -6.171001434326172 47.63399887084961 -5.967001914978027 C 47.32799911499023 -5.559001922607422 46.84350204467773 -5.066001892089844 46.18050003051758 -4.488001823425293 C 45.51750183105469 -3.910001754760742 44.7864990234375 -3.366002082824707 43.98749923706055 -2.856001853942871 C 43.18849945068359 -2.346001625061035 42.37250137329102 -1.912502288818359 41.53950119018555 -1.555501937866211 C 40.70650100708008 -1.198501586914063 39.95000076293945 -1.020002365112305 39.27000045776367 -1.020002365112305 C 39.03200149536133 -1.020002365112305 38.84500122070313 -1.037002563476563 38.70899963378906 -1.071001052856445 C 38.13100051879883 -1.207002639770508 37.73149871826172 -1.496002197265625 37.51050186157227 -1.93800163269043 C 37.28950119018555 -2.380002021789551 37.17900085449219 -2.856001853942871 37.17900085449219 -3.366002082824707 C 37.17900085449219 -3.536002159118652 37.1875 -3.68900203704834 37.20449829101563 -3.82500171661377 C 37.22150039672852 -3.961001396179199 37.24700164794922 -4.114001274108887 37.28099822998047 -4.284001350402832 C 37.927001953125 -4.420001983642578 38.58150100708008 -4.700501441955566 39.24449920654297 -5.12550163269043 C 39.90750122070313 -5.550501823425293 40.47700119018555 -6.052001953125 40.95299911499023 -6.630002021789551 C 41.39500045776367 -7.174001693725586 41.61600112915039 -7.752001762390137 41.61600112915039 -8.364001274108887 C 41.61600112915039 -9.112001419067383 41.29299926757813 -9.690001487731934 40.64699935913086 -10.09800148010254 C 40.375 -10.26800155639648 40.12000274658203 -10.35300159454346 39.88199996948242 -10.35300159454346 M 37.48500061035156 -5.355001449584961 C 37.51900100708008 -5.559001922607422 37.63800048828125 -5.83950138092041 37.84199905395508 -6.196501731872559 C 38.04600143432617 -6.553502082824707 38.28400039672852 -6.910501480102539 38.55599975585938 -7.267501831054688 C 38.82799911499023 -7.624502182006836 39.11700057983398 -7.930501937866211 39.42300033569336 -8.185502052307129 C 39.72900009155273 -8.440502166748047 40.01800155639648 -8.568001747131348 40.29000091552734 -8.568001747131348 C 40.45999908447266 -8.568001747131348 40.57900238037109 -8.534001350402832 40.64699935913086 -8.466001510620117 C 40.61299896240234 -8.092001914978027 40.45999908447266 -7.735001564025879 40.1879997253418 -7.395001411437988 C 39.91600036621094 -7.055002212524414 39.60150146484375 -6.749001502990723 39.24449920654297 -6.477002143859863 C 38.88750076293945 -6.205001831054688 38.53900146484375 -5.967001914978027 38.19900131225586 -5.763001441955566 C 37.85900115966797 -5.559001922607422 37.62100219726563 -5.423001289367676 37.48500061035156 -5.355001449584961 M 28.10099983215332 -9.02700138092041 C 26.26500129699707 -9.02700138092041 25.34700012207031 -8.398001670837402 25.34700012207031 -7.14000129699707 C 25.34700012207031 -6.66400146484375 25.44900131225586 -6.256001472473145 25.65299987792969 -5.916001319885254 C 25.07500076293945 -4.862001419067383 24.78600120544434 -3.808001518249512 24.78600120544434 -2.754001617431641 C 24.78600120544434 -1.93800163269043 25.02400016784668 -1.266502380371094 25.5 -0.739501953125 C 25.97599983215332 -0.2125015258789063 26.6560001373291 0.05099868774414063 27.54000091552734 0.05099868774414063 C 28.32200050354004 0.05099868774414063 29.06150054931641 -0.3400020599365234 29.75850105285645 -1.122001647949219 C 30.45549964904785 -1.904001235961914 30.94000053405762 -2.788002014160156 31.21199989318848 -3.774002075195313 C 32.36800003051758 -3.842001914978027 33.48149871826172 -4.054501533508301 34.5525016784668 -4.411501884460449 C 34.92837142944336 -4.536791801452637 35.27594757080078 -4.686147689819336 35.59528350830078 -4.859596252441406 C 35.66017150878906 -5.175085067749023 35.74608612060547 -5.493259429931641 35.85300064086914 -5.81400203704834 C 35.87224197387695 -5.871725082397461 35.89192199707031 -5.929152488708496 35.91201782226563 -5.98619556427002 C 35.44430160522461 -5.603940010070801 34.89763641357422 -5.30854606628418 34.27199935913086 -5.100001335144043 C 33.35400009155273 -4.794001579284668 32.40200042724609 -4.64100170135498 31.41600036621094 -4.64100170135498 C 31.41600036621094 -4.77700138092041 31.42449951171875 -4.896001815795898 31.44149971008301 -4.998002052307129 C 31.45849990844727 -5.100001335144043 31.46700096130371 -5.219001770019531 31.46700096130371 -5.355001449584961 C 31.46700096130371 -6.477002143859863 31.12700080871582 -7.35250186920166 30.44700050354004 -7.981501579284668 C 29.76700019836426 -8.610501289367676 28.98500061035156 -8.959001541137695 28.10099983215332 -9.02700138092041 M 29.83500099182129 -4.794001579284668 C 28.88300132751465 -4.964001655578613 28.10099983215332 -5.253002166748047 27.48900032043457 -5.661002159118652 C 26.87700080871582 -6.069002151489258 26.57100105285645 -6.562002182006836 26.57100105285645 -7.14000129699707 C 26.57100105285645 -7.888001441955566 26.99600028991699 -8.262001991271973 27.84600067138672 -8.262001991271973 C 28.5939998626709 -8.194002151489258 29.12950134277344 -7.922001838684082 29.45250129699707 -7.446002006530762 C 29.7755012512207 -6.970002174377441 29.9370002746582 -6.392002105712891 29.9370002746582 -5.712001800537109 C 29.9370002746582 -5.542001724243164 29.92850112915039 -5.389001846313477 29.91150093078613 -5.253002166748047 C 29.89450073242188 -5.117001533508301 29.8690013885498 -4.964001655578613 29.83500099182129 -4.794001579284668 M 27.08100128173828 -0.7650012969970703 C 26.8430004119873 -0.7990016937255859 26.67300033569336 -0.9945011138916016 26.57100105285645 -1.35150146484375 C 26.4689998626709 -1.708501815795898 26.41800117492676 -2.142002105712891 26.41800117492676 -2.65200138092041 C 26.41800117492676 -2.992001533508301 26.43500137329102 -3.34050178527832 26.4689998626709 -3.697502136230469 C 26.50300025939941 -4.054501533508301 26.5880012512207 -4.420001983642578 26.72400093078613 -4.794001579284668 C 27.09799957275391 -4.556001663208008 27.5314998626709 -4.360501289367676 28.02449989318848 -4.207501411437988 C 28.51749992370605 -4.054501533508301 29.05299949645996 -3.944002151489258 29.63100051879883 -3.876001358032227 C 29.35900115966797 -3.060001373291016 28.98500061035156 -2.337501525878906 28.50900077819824 -1.708501815795898 C 28.03300094604492 -1.079502105712891 27.5570011138916 -0.7650012969970703 27.08100128173828 -0.7650012969970703 M 21.30764007568359 -31.1410026550293 C 22.62985038757324 -31.1410026550293 23.75407981872559 -30.89385223388672 24.64910125732422 -30.40640258789063 C 25.72651100158691 -29.81963157653809 26.29599952697754 -28.8449821472168 26.29599952697754 -27.58781051635742 C 26.29599952697754 -26.74692153930664 25.98339080810547 -25.84156227111816 25.36684036254883 -24.89688110351563 C 24.82583045959473 -24.06794166564941 24.10975074768066 -23.17915153503418 23.23847007751465 -22.25518226623535 C 22.38138008117676 -21.34625244140625 21.39015007019043 -20.4175910949707 20.29231071472168 -19.49499130249023 C 19.2104606628418 -18.58580207824707 18.09599113464355 -17.69847106933594 16.97988128662109 -16.85765075683594 C 15.86952972412109 -16.02116203308105 14.77766036987305 -15.22455215454102 13.73458862304688 -14.48997116088867 C 13.47233581542969 -14.30528259277344 13.21747589111328 -14.12603759765625 12.97026062011719 -13.9524097442627 C 13.98202133178711 -13.72753810882568 14.89960479736328 -13.46085357666016 15.71419906616211 -13.15446186065674 C 17.16816139221191 -12.60759162902832 18.37660980224609 -11.94272232055664 19.30599975585938 -11.17832183837891 C 20.27044105529785 -10.38509178161621 20.98869132995605 -9.472931861877441 21.4407901763916 -8.467202186584473 C 21.88750076293945 -7.473422050476074 22.11400032043457 -6.416141510009766 22.11400032043457 -5.324721336364746 C 22.11400032043457 -3.936552047729492 21.79556083679199 -2.482391357421875 21.16752052307129 -1.002641677856445 C 20.56073951721191 0.4270191192626953 19.73956108093262 1.837308883666992 18.7268009185791 3.189048767089844 C 17.72837066650391 4.521657943725586 16.58354949951172 5.801279067993164 15.32411956787109 6.992368698120117 C 14.06645202636719 8.181798934936523 12.74539184570313 9.2469482421875 11.39762115478516 10.15821838378906 C 10.037109375 11.07811737060547 8.679679870605469 11.81547737121582 7.363040924072266 12.34979820251465 C 5.990928649902344 12.90664863586426 4.697608947753906 13.18899917602539 3.519001007080078 13.18899917602539 C 2.354610443115234 13.18899917602539 1.32373046875 12.8666877746582 0.4549903869628906 12.23102760314941 C -0.4968681335449219 11.53454780578613 -1 10.49714851379395 -1 9.230998992919922 C -1 8.226179122924805 -0.6804313659667969 7.087238311767578 -0.0501708984375 5.845808029174805 C 0.5371818542480469 4.688907623291016 1.309650421142578 3.493328094482422 2.245769500732422 2.292257308959961 C 3.170848846435547 1.105358123779297 4.231479644775391 -0.07036209106445313 5.398189544677734 -1.202241897583008 C 6.562660217285156 -2.331952095031738 7.745349884033203 -3.346741676330566 8.913421630859375 -4.21843147277832 C 10.0926513671875 -5.098462104797363 11.23962020874023 -5.823691368103027 12.32244873046875 -6.373991966247559 C 13.51282119750977 -6.978931427001953 14.52014923095703 -7.273001670837402 15.40200042724609 -7.273001670837402 C 15.80400085449219 -7.273001670837402 16.2152214050293 -7.187602043151855 16.6242504119873 -7.019182205200195 C 17.28345108032227 -6.74774169921875 17.67700004577637 -6.182821273803711 17.67700004577637 -5.508001327514648 C 17.67700004577637 -5.079761505126953 17.39120101928711 -4.355001449584961 16.31999969482422 -4.355001449584961 L 15.81000137329102 -4.355001449584961 C 15.51092147827148 -4.355001449584961 14.95075225830078 -4.240211486816406 13.98051071166992 -3.693351745605469 C 13.09492874145508 -3.194201469421387 12.13455963134766 -2.536981582641602 11.12604904174805 -1.73994255065918 C 10.10527038574219 -0.9331912994384766 9.060218811035156 -0.005041122436523438 8.019931793212891 1.01873779296875 C 6.982952117919922 2.03925895690918 6.041011810302734 3.081048965454102 5.220291137695313 4.115158081054688 C 4.408721923828125 5.137727737426758 3.736259460449219 6.129219055175781 3.221580505371094 7.062078475952148 C 2.769142150878906 7.882108688354492 2.529998779296875 8.596837997436523 2.529998779296875 9.128997802734375 C 2.529998779296875 9.464378356933594 2.627861022949219 9.542657852172852 2.664699554443359 9.572128295898438 C 2.823558807373047 9.69921875 3.052959442138672 9.760997772216797 3.366001129150391 9.760997772216797 C 3.967769622802734 9.760997772216797 4.738842010498047 9.550807952880859 5.657791137695313 9.136259078979492 C 6.652179718017578 8.687677383422852 7.714729309082031 8.074817657470703 8.815929412841797 7.314708709716797 C 9.923488616943359 6.550197601318359 11.03211212158203 5.64103889465332 12.11096954345703 4.61248779296875 C 13.19076156616211 3.583057403564453 14.17718887329102 2.490438461303711 15.04285049438477 1.364978790283203 C 15.89385986328125 0.2585678100585938 16.59259033203125 -0.8847408294677734 17.1196403503418 -2.033162117004395 C 17.61754035949707 -3.118082046508789 17.8700008392334 -4.142951965332031 17.8700008392334 -5.079281806945801 C 17.8700008392334 -5.828512191772461 17.71973991394043 -6.494941711425781 17.42337989807129 -7.06007194519043 C 17.13533973693848 -7.609372138977051 16.63849067687988 -8.10504150390625 15.94664001464844 -8.533341407775879 C 15.18191909790039 -9.006741523742676 14.15460205078125 -9.422411918640137 12.89319229125977 -9.76881217956543 C 11.59244918823242 -10.12601184844971 9.965351104736328 -10.40721130371094 8.057102203369141 -10.60462188720703 C 7.506118774414063 -10.65971183776855 6.971569061279297 -10.91553115844727 6.471691131591797 -11.36463165283203 C 5.913181304931641 -11.86641120910645 5.630001068115234 -12.42501163482666 5.630001068115234 -13.02492141723633 C 5.630001068115234 -13.65531158447266 5.934471130371094 -14.21711158752441 6.487331390380859 -14.60685157775879 C 6.795372009277344 -14.82401466369629 7.251945495605469 -15.11690902709961 7.882976531982422 -15.50215816497803 C 8.452678680419922 -15.87042713165283 9.233299255371094 -16.38742446899414 10.20346069335938 -17.03899192810059 C 11.17943954467773 -17.69446182250977 12.24639892578125 -18.4276008605957 13.37472915649414 -19.21807098388672 C 14.49905014038086 -20.00571250915527 15.65658950805664 -20.84714126586914 16.81523132324219 -21.71900177001953 C 17.96096038818359 -22.58116149902344 19.00345993041992 -23.42899131774902 19.91377067565918 -24.23896217346191 C 20.8046703338623 -25.03166198730469 21.53964042663574 -25.78120231628418 22.09827041625977 -26.46677207946777 C 22.56025505065918 -27.03373336791992 22.7028751373291 -27.3713264465332 22.74670600891113 -27.53199005126953 C 22.58921813964844 -27.59896278381348 22.19257354736328 -27.7130012512207 21.31800079345703 -27.7130012512207 C 20.18052101135254 -27.7130012512207 18.87996101379395 -27.53408050537109 17.45247077941895 -27.18122100830078 C 16.00101089477539 -26.82243156433105 14.62195205688477 -26.36018180847168 13.35359191894531 -25.80730056762695 C 12.11021041870117 -25.26532173156738 11.04983901977539 -24.65613174438477 10.20193862915039 -23.99665069580078 C 9.562919616699219 -23.49963188171387 9.211002349853516 -23.01925277709961 9.211002349853516 -22.64400100708008 C 9.211002349853516 -21.98350143432617 8.897232055664063 -21.42538070678711 8.350139617919922 -21.11276245117188 C 7.960250854492188 -20.88996124267578 7.535942077636719 -20.77700233459473 7.089000701904297 -20.77700233459473 C 6.72930908203125 -20.77700233459473 6.390098571777344 -20.85542106628418 6.080791473388672 -21.01007080078125 C 5.574981689453125 -21.26298141479492 5.272998809814453 -21.74033164978027 5.272998809814453 -22.28700256347656 C 5.272998809814453 -23.49637222290039 5.909149169921875 -24.68169212341309 7.163791656494141 -25.8100414276123 C 8.270092010498047 -26.80497169494629 9.649330139160156 -27.69933128356934 11.26321029663086 -28.4682731628418 C 12.8408317565918 -29.21993255615234 14.54558181762695 -29.85761260986328 16.33011054992676 -30.36358261108398 C 18.14952087402344 -30.87944221496582 19.82419967651367 -31.1410026550293 21.30764007568359 -31.1410026550293 Z M 39.88199996948242 -11.35300159454346 C 40.30918884277344 -11.35300159454346 40.74488830566406 -11.21606159210205 41.177001953125 -10.94600105285645 C 42.11978149414063 -10.35057163238525 42.61600112915039 -9.458601951599121 42.61600112915039 -8.364001274108887 C 42.61600112915039 -7.519271850585938 42.31761169433594 -6.723711967468262 41.72911071777344 -5.999411582946777 L 41.72703170776367 -5.996841430664063 L 41.72492980957031 -5.994291305541992 C 41.18484878540039 -5.338481903076172 40.53187942504883 -4.762921333312988 39.78417205810547 -4.283621788024902 C 39.25260543823242 -3.942873001098633 38.71586608886719 -3.679699897766113 38.1812858581543 -3.497214317321777 C 38.17976379394531 -3.455514907836914 38.17900085449219 -3.411727905273438 38.17900085449219 -3.366002082824707 C 38.17900085449219 -3.01008129119873 38.25289916992188 -2.689271926879883 38.40493011474609 -2.385211944580078 C 38.44145202636719 -2.31218147277832 38.52696228027344 -2.141141891479492 38.93804168701172 -2.044422149658203 L 38.94480133056641 -2.042831420898438 L 38.9515380859375 -2.041141510009766 C 38.95499038696289 -2.040281295776367 39.03876113891602 -2.020001411437988 39.27000045776367 -2.020001411437988 C 39.81061935424805 -2.020001411437988 40.4416618347168 -2.172962188720703 41.14558029174805 -2.474651336669922 C 41.92481231689453 -2.808601379394531 42.6999397277832 -3.220501899719238 43.44945907592773 -3.698922157287598 C 44.20301055908203 -4.179911613464355 44.90077209472656 -4.699001312255859 45.52336120605469 -5.241771697998047 C 46.12017822265625 -5.762081146240234 46.55642318725586 -6.20177173614502 46.82047653198242 -6.549094200134277 C 47.23041915893555 -7.146509170532227 47.70979309082031 -7.273001670837402 48.04199981689453 -7.273001670837402 C 48.64645004272461 -7.273001670837402 49.29700088500977 -6.832391738891602 49.29700088500977 -5.865001678466797 C 49.29700088500977 -5.290370941162109 49.10858154296875 -4.766327857971191 48.75212860107422 -4.349396705627441 C 47.7431640625 -3.160656929016113 46.36890411376953 -2.000292778015137 44.66741561889648 -0.9003505706787109 C 43.76381683349609 -0.2869205474853516 42.8182258605957 0.2172584533691406 41.85686111450195 0.5981788635253906 C 40.84231185913086 1.000167846679688 39.85185241699219 1.203998565673828 38.91300201416016 1.203998565673828 L 38.42850112915039 1.203998565673828 C 38.16342163085938 1.203998565673828 37.89126205444336 1.151697158813477 37.61882781982422 1.048477172851563 C 36.47724151611328 0.7019252777099609 35.64550018310547 0.100860595703125 35.14646148681641 -0.7384223937988281 C 34.6947021484375 -1.498212814331055 34.45908355712891 -2.369513511657715 34.44561386108398 -3.329462051391602 C 34.34184265136719 -3.298613548278809 34.23766326904297 -3.268991470336914 34.13300704956055 -3.240575790405273 L 33.78440093994141 -2.955641746520996 L 33.85968017578125 -3.169378280639648 C 33.23746871948242 -3.014110565185547 32.60106658935547 -2.901483535766602 31.95516204833984 -2.832400321960449 C 31.62608337402344 -1.965885162353516 31.14004898071289 -1.169109344482422 30.5050106048584 -0.4566326141357422 C 29.61336135864258 0.5437583923339844 28.61579132080078 1.050998687744141 27.54000091552734 1.050998687744141 C 26.36532020568848 1.050998687744141 25.42928123474121 0.6741085052490234 24.75790023803711 -0.06921195983886719 C 24.11299133300781 -0.7832126617431641 23.78600120544434 -1.686511993408203 23.78600120544434 -2.754001617431641 C 23.78600120544434 -3.818604469299316 24.04010200500488 -4.888271331787109 24.54207992553711 -5.94019603729248 C 24.41242980957031 -6.305534362792969 24.34700012207031 -6.707026481628418 24.34700012207031 -7.14000129699707 C 24.34700012207031 -8.355411529541016 24.95783996582031 -9.029071807861328 25.47027015686035 -9.380181312561035 C 26.10548973083496 -9.815422058105469 26.96601104736328 -10.02700233459473 28.10099983215332 -10.02700233459473 L 28.13940048217773 -10.02700233459473 L 28.17770004272461 -10.02405166625977 C 29.28775978088379 -9.938661575317383 30.27972984313965 -9.498441696166992 31.12603950500488 -8.715601921081543 C 31.94035148620605 -7.962368965148926 32.38729476928711 -6.951467514038086 32.45726776123047 -5.707050323486328 C 32.96878051757813 -5.772595405578613 33.46994781494141 -5.886739730834961 33.95577239990234 -6.04868221282959 C 34.37249755859375 -6.187590599060059 34.74750137329102 -6.374109268188477 35.07392120361328 -6.604547500610352 C 35.34688186645508 -7.31798267364502 35.68649291992188 -7.989031791687012 36.08554840087891 -8.602981567382813 C 36.58306121826172 -9.368381500244141 37.14298248291016 -10.00458145141602 37.74974822998047 -10.49391174316406 C 38.45661163330078 -11.06396102905273 39.17399978637695 -11.35300159454346 39.88199996948242 -11.35300159454346 Z M 28.91662788391113 -6.063542366027832 C 28.87733459472656 -6.384087562561035 28.78092956542969 -6.654740333557129 28.62502098083496 -6.884501457214355 C 28.57222557067871 -6.962314605712891 28.41418266296387 -7.195253372192383 27.80205726623535 -7.261477470397949 C 27.68734169006348 -7.25867748260498 27.61627769470215 -7.245206832885742 27.57672691345215 -7.234326362609863 C 27.57365798950195 -7.212567329406738 27.57100105285645 -7.181694030761719 27.57100105285645 -7.14000129699707 C 27.57100105285645 -7.049251556396484 27.57100105285645 -6.808181762695313 28.043701171875 -6.493051528930664 C 28.29279518127441 -6.326990127563477 28.58452033996582 -6.183547019958496 28.91662788391113 -6.063542366027832 Z M 28.22271728515625 -3.114837646484375 C 28.0537052154541 -3.156705856323242 27.88866996765137 -3.202607154846191 27.72809982299805 -3.25244140625 C 27.63151741027832 -3.282415390014648 27.53655052185059 -3.313970565795898 27.44324493408203 -3.347081184387207 C 27.42646980285645 -3.110712051391602 27.41800117492676 -2.877853393554688 27.41800117492676 -2.65200138092041 C 27.41800117492676 -2.415884017944336 27.43049240112305 -2.20232105255127 27.45527839660645 -2.013075828552246 C 27.53167343139648 -2.089651107788086 27.6175537109375 -2.187676429748535 27.71158981323242 -2.311942100524902 C 27.89951133728027 -2.560269355773926 28.07019805908203 -2.82850170135498 28.22271728515625 -3.114837646484375 Z"/></g></svg>