<svg xmlns="http://www.w3.org/2000/svg" width="12.214" height="18.352" viewBox="0 0 12.214 18.352"><defs><style>.a{fill:#3e5351;}</style></defs><g transform="translate(-173.9 -9.971)"><path class="a" d="M173.9,16.181a6.1,6.1,0,0,1,2.365-4.921A5.8,5.8,0,0,1,179.385,10a6.11,6.11,0,0,1,6.589,4.771A7,7,0,0,1,186,17.42a14.685,14.685,0,0,1-1.305,3.974,33.021,33.021,0,0,1-4.352,6.722c-.223.273-.44.275-.667,0A31.541,31.541,0,0,1,175.3,21.4a14.217,14.217,0,0,1-1.32-4.221c-.047-.348-.058-.7-.081-1Zm6.073,11.3c.064-.067.082-.082.1-.1a31.95,31.95,0,0,0,4.035-6.324,13.2,13.2,0,0,0,1.3-4.283,5.54,5.54,0,0,0-.637-3.316,5.391,5.391,0,0,0-5.5-2.756,5.244,5.244,0,0,0-3.459,1.949,5.56,5.56,0,0,0-1.148,4.459,12.286,12.286,0,0,0,.762,2.833,23.973,23.973,0,0,0,2.515,4.7c.648.957,1.346,1.878,2.041,2.839Zm2.681-11.024a2.643,2.643,0,1,1-2.631-2.646,2.652,2.652,0,0,1,2.631,2.646Zm-.682,0A1.962,1.962,0,1,0,180,18.428a1.956,1.956,0,0,0,1.972-1.964Z"/></g></svg>