<svg xmlns="http://www.w3.org/2000/svg" width="20.451" height="20.453" viewBox="0 0 20.451 20.453"><defs><style>.a{fill:#2196f3;}.b{fill:#fafafa;}</style></defs><g transform="translate(-0.025 0)"><path class="a" d="M10.251,0A10.03,10.03,0,0,0,.025,9.8,9.615,9.615,0,0,0,3.434,17.1v2.931a.426.426,0,0,0,.652.361L6.46,18.905a10.551,10.551,0,0,0,3.79.7A10.03,10.03,0,0,0,20.476,9.8,10.03,10.03,0,0,0,10.251,0Z" transform="translate(0 0)"/><path class="b" d="M98.921,170.866a.426.426,0,0,0-.545-.119l-4.431,2.416L91.188,170.8a.426.426,0,0,0-.579.022L85.5,175.933a.426.426,0,0,0,.505.675l4.431-2.416,2.759,2.365a.426.426,0,0,0,.579-.022l5.113-5.113A.426.426,0,0,0,98.921,170.866Z" transform="translate(-81.938 -163.876)"/></g></svg>