<svg xmlns="http://www.w3.org/2000/svg" width="13.149" height="18.351" viewBox="0 0 13.149 18.351"><defs><style>.a{fill:#3e5351;}</style></defs><g transform="translate(-148.9 -10)"><path class="a" d="M378.9,363.3h6.833v.517H378.9Z" transform="translate(-225.693 -346.684)"/><path class="a" d="M378.9,516.9h6.833v.517H378.9Z" transform="translate(-225.693 -497.408)"/><path class="a" d="M378.9,670.6h6.833v.517H378.9Z" transform="translate(-225.693 -648.23)"/><path class="a" d="M378.9,824.2h6.833v.517H378.9Z" transform="translate(-225.693 -798.954)"/><path class="a" d="M256.2,363.3h1.667v.517H256.2Z" transform="translate(-105.291 -346.684)"/><path class="a" d="M256.2,516.9h1.667v.517H256.2Z" transform="translate(-105.291 -497.408)"/><path class="a" d="M256.2,670.6h1.667v.517H256.2Z" transform="translate(-105.291 -648.23)"/><path class="a" d="M256.2,824.2h1.667v.517H256.2Z" transform="translate(-105.291 -798.954)"/><path class="a" d="M162.049,133.838H148.9V117.5h4.249v.517h-3.732v15.3h12.117v-15.3H157.8V117.5h4.249Z" transform="translate(0 -105.487)"/><path class="a" d="M345.5,13.97H339.76a.263.263,0,0,1-.2-.1.259.259,0,0,1-.047-.221l.575-2.3a.259.259,0,0,1,.251-.195h.889v-.9a.259.259,0,0,1,.258-.258h2.3a.259.259,0,0,1,.258.258v.893h.888a.26.26,0,0,1,.251.195l.575,2.3a.259.259,0,0,1-.047.221A.256.256,0,0,1,345.5,13.97Zm-5.41-.517h5.08l-.446-1.785h-.946a.259.259,0,0,1-.258-.258v-.893h-1.783v.893a.259.259,0,0,1-.258.258h-.946Z" transform="translate(-187.032)"/></g></svg>