<svg xmlns="http://www.w3.org/2000/svg" width="16.534" height="16.534" viewBox="0 0 16.534 16.534"><defs><style>.a{fill:#3e5351;}</style></defs><g transform="translate(-10 -10)"><path class="a" d="M13.838,10a3.838,3.838,0,1,0,0,7.676h3.838V13.838A3.839,3.839,0,0,0,13.838,10ZM16.5,16.5H13.838A2.657,2.657,0,1,1,16.5,13.838V16.5Zm10.038-2.657a3.838,3.838,0,1,0-7.676,0v3.838H22.7A3.839,3.839,0,0,0,26.534,13.838Zm-6.5,0A2.657,2.657,0,1,1,22.7,16.5H20.038V13.838ZM10,22.7a3.838,3.838,0,1,0,7.676,0V18.857H13.838A3.839,3.839,0,0,0,10,22.7Zm6.5,0a2.657,2.657,0,1,1-2.657-2.657H16.5Zm6.2-3.838H18.857V22.7A3.838,3.838,0,1,0,22.7,18.857Zm0,6.5A2.66,2.66,0,0,1,20.038,22.7V20.038H22.7a2.657,2.657,0,1,1,0,5.314Z"/></g></svg>